<svg version="1.1" id="el_-qYFXOeXU" xmlns="http://www.w3.org/2000/svg" xmlns:xlink="http://www.w3.org/1999/xlink" x="0px" y="0px" viewBox="0 0 1133 1133" style="enable-background:new 0 0 1133.9 1133.9;" xml:space="preserve"><style>@-webkit-keyframes kf_el_PvS_FnrTg3_an_6dAgeu8B7{0%{opacity: 1;}66.67%{opacity: 0;}100%{opacity: 0;}}@keyframes kf_el_PvS_FnrTg3_an_6dAgeu8B7{0%{opacity: 1;}66.67%{opacity: 0;}100%{opacity: 0;}}#el_-qYFXOeXU *{-webkit-animation-duration: 3s;animation-duration: 3s;-webkit-animation-iteration-count: infinite;animation-iteration-count: infinite;-webkit-animation-timing-function: cubic-bezier(0, 0, 1, 1);animation-timing-function: cubic-bezier(0, 0, 1, 1);}#el_4QA3dUc0N_{opacity: 0.3;fill: #96D9F2;}#el_tPrcdvAr08{fill: #87D2D7;stroke: #000000;stroke-miterlimit: 10;}#el_shxRZYIxSJ{stroke: #000000;stroke-miterlimit: 10;}#el_35HvzxySK8{fill: #FEDABF;stroke: #000000;stroke-miterlimit: 10;}#el_dJox3t0CNd{stroke: #000000;stroke-miterlimit: 10;}#el_tu0t6ZOtkH{stroke: #000000;stroke-miterlimit: 10;}#el_zr-mgArQhP{fill: none;stroke: #000000;stroke-width: 19;stroke-miterlimit: 10;}#el_yRSjwxHDlx{fill: #FEE1C9;stroke: #000000;stroke-miterlimit: 10;}#el_KIrSmOmlza{fill: #FEE1C9;stroke: #000000;stroke-miterlimit: 10;}#el_PvS_FnrTg3{stroke: #000000;stroke-miterlimit: 10;-webkit-animation-fill-mode: backwards;animation-fill-mode: backwards;opacity: 1;-webkit-animation-name: kf_el_PvS_FnrTg3_an_6dAgeu8B7;animation-name: kf_el_PvS_FnrTg3_an_6dAgeu8B7;-webkit-animation-timing-function: cubic-bezier(0, 0, 1, 1);animation-timing-function: cubic-bezier(0, 0, 1, 1);}#el_cxMpQaJAvs{fill: #FBBFA0;stroke: #000000;stroke-miterlimit: 10;}#el_thxsG5p9On{fill: #FFFFFF;stroke: #000000;stroke-miterlimit: 10;}#el_ZFCsOxf_Pk{stroke: #000000;stroke-miterlimit: 10;}#el_zJFnIB09eS{fill: #FFFFFF;stroke: #000000;stroke-miterlimit: 10;}#el_SUWuw-XzSM{stroke: #000000;stroke-miterlimit: 10;}</style>

<rect x="156.1" y="249.6" width="822" height="631.5" id="el_4QA3dUc0N_"/>
<path d="M461.2,660.2c0,0-142.3,139.5-152,178.5c-9.7,38.9,505.9,73.7,536.5,0S691,647.9,691,647.9l-223.4,15.7" id="el_tPrcdvAr08"/>
<path d="M435.2,497.6c0,0,25.9,4.9,43.9-44.5s29.7-14.8,29.7-14.8s21.6,11.7,37.1-11.8c15.4-23.4,38.9,0,38.9,0&#10;&#9;s12.2,20.4,34.2,13c22-7.4,26.3,17.4,26.3,17.4s10.5,25.2,27.2,25.2c16.7,0,0,22.9,0,22.9s-1.9,4.3,20.4-3.7&#10;&#9;c22.2-8,70.4-22.8,50-85.2s21.6-51.9,4.9-63.1c-16.7-11.1-13.6-37.1-30.2-41.4c-16.7-4.3-34.6-39.5-58.7-43.2&#10;&#9;c-24.1-3.7-22.2,6.8-22.2,6.8s-21-38.9-66.7-16.1c-45.7,22.9-45.1,1.9-45.1,1.9s-63-27.8-66.1,40.2s-47.6-46.9-58.7,53.1&#10;&#9;c-11.1,100.1-58.1,14.2-13.6,73.5s4.9,54.4,4.9,54.4L435.2,497.6z" id="el_shxRZYIxSJ"/>
<path d="M715.7,506.2c0,0,8.9,179.2-109.7,196.5s-151.3-52.5-151.3-52.5s-52.7-86.6-37.1-152.7&#10;&#9;c15.6-66,31.9-125.9,83.1-131.5s221.7,34.5,218,69.4C715,470.5,715.7,506.2,715.7,506.2z" id="el_35HvzxySK8"/>
<path d="M576.1,506.2c0,0,70.4-17.2,79.7-7.3c9.3,9.9,11.7,17.9,0,17.9s-61.8-6.2-70.4,3.7&#10;&#9;C576.7,530.4,569.3,512.9,576.1,506.2z" id="el_dJox3t0CNd"/>
<path d="M489,498.9c0,0,51.9-0.1,59.9,7.3s-3.7,17.2-3.7,17.2s-43.9-11-71.7-9.1c-27.8,1.9,0-15.4,0-15.4L489,498.9z" id="el_tu0t6ZOtkH"/>
<path d="M461.2,685.8" id="el_zr-mgArQhP"/>
<path d="M419.8,504.5c0,0-44.5-37.4-31.5,16.7c13,54.1,44.5,45.4,44.5,45.4L419.8,504.5z" id="el_yRSjwxHDlx"/>
<path d="M713.3,512.1c0,0,43-42.2,35,13.1s-42.1,50.1-42.1,50.1L713.3,512.1z" id="el_KIrSmOmlza"/>
<path d="M715.7,487.2c0,0-90.2,113.6-88.4,149.5c1.9,35.8,4.3-69.8-29-66.1c-33.4,3.7-92.7,0.6-95.7,8.6&#10;&#9;c-3.1,8-15.4,51.9-8,61.8c7.4,9.9-74.8-121.4-73.5-142.1c1.3-20.7,0.3,89.3,13.1,109.5s36.4,106.3,127.1,96.9&#10;&#9;c90.8-9.4,140.1-26.3,149.1-130C719.4,471.7,715.7,487.2,715.7,487.2z" id="el_PvS_FnrTg3"/>
<path d="M519.2,605.1c0,0,69.2-18.5,82.8,4.3s-82.8,16.1-82.8,16.1V605.1z" id="el_cxMpQaJAvs"/>
<path d="M485,523.9c0,0,22-8.7,37.3,0c15.3,8.7,15.3,8.7,15.3,8.7s-38,12.7-52.7,2.3c-14.7-10.3-8.7-9.7-8.7-9.7&#10;&#9;L485,523.9z" id="el_thxsG5p9On"/>
<ellipse cx="504.6" cy="529.5" rx="10" ry="8.3" id="el_ZFCsOxf_Pk"/>
<path d="M632.5,521c0,0-19.9-8.7-33.8,0s-13.9,8.7-13.9,8.7s34.4,12.7,47.7,2.3s7.8-9.7,7.8-9.7L632.5,521z" id="el_zJFnIB09eS"/>
<ellipse cx="614.8" cy="526.6" rx="9" ry="8.3" id="el_SUWuw-XzSM"/>
</svg>