<svg version="1.1" id="el_VFBoHUjkN" xmlns="http://www.w3.org/2000/svg" xmlns:xlink="http://www.w3.org/1999/xlink" x="0px" y="0px" viewBox="0 0 1133 1133" style="enable-background:new 0 0 1133.9 1133.9;" xml:space="preserve"><style>@-webkit-keyframes kf_el_Dg6-zvBdqj_an_pe9IeEF8y{0%{-webkit-transform: translate(349.5999755859375px, 703.2999877929688px) scale(0, 0) translate(-349.5999755859375px, -703.2999877929688px);transform: translate(349.5999755859375px, 703.2999877929688px) scale(0, 0) translate(-349.5999755859375px, -703.2999877929688px);}33.33%{-webkit-transform: translate(349.5999755859375px, 703.2999877929688px) scale(1, 1) translate(-349.5999755859375px, -703.2999877929688px);transform: translate(349.5999755859375px, 703.2999877929688px) scale(1, 1) translate(-349.5999755859375px, -703.2999877929688px);}100%{-webkit-transform: translate(349.5999755859375px, 703.2999877929688px) scale(1, 1) translate(-349.5999755859375px, -703.2999877929688px);transform: translate(349.5999755859375px, 703.2999877929688px) scale(1, 1) translate(-349.5999755859375px, -703.2999877929688px);}}@keyframes kf_el_Dg6-zvBdqj_an_pe9IeEF8y{0%{-webkit-transform: translate(349.5999755859375px, 703.2999877929688px) scale(0, 0) translate(-349.5999755859375px, -703.2999877929688px);transform: translate(349.5999755859375px, 703.2999877929688px) scale(0, 0) translate(-349.5999755859375px, -703.2999877929688px);}33.33%{-webkit-transform: translate(349.5999755859375px, 703.2999877929688px) scale(1, 1) translate(-349.5999755859375px, -703.2999877929688px);transform: translate(349.5999755859375px, 703.2999877929688px) scale(1, 1) translate(-349.5999755859375px, -703.2999877929688px);}100%{-webkit-transform: translate(349.5999755859375px, 703.2999877929688px) scale(1, 1) translate(-349.5999755859375px, -703.2999877929688px);transform: translate(349.5999755859375px, 703.2999877929688px) scale(1, 1) translate(-349.5999755859375px, -703.2999877929688px);}}@-webkit-keyframes kf_el_ZuVBFg7Yp1_an_gcHOYM0m8{0%{-webkit-transform: translate(349.70001220703125px, 615.2999877929688px) scale(0, 0) translate(-349.70001220703125px, -615.2999877929688px);transform: translate(349.70001220703125px, 615.2999877929688px) scale(0, 0) translate(-349.70001220703125px, -615.2999877929688px);}33.33%{-webkit-transform: translate(349.70001220703125px, 615.2999877929688px) scale(1, 1) translate(-349.70001220703125px, -615.2999877929688px);transform: translate(349.70001220703125px, 615.2999877929688px) scale(1, 1) translate(-349.70001220703125px, -615.2999877929688px);}100%{-webkit-transform: translate(349.70001220703125px, 615.2999877929688px) scale(1, 1) translate(-349.70001220703125px, -615.2999877929688px);transform: translate(349.70001220703125px, 615.2999877929688px) scale(1, 1) translate(-349.70001220703125px, -615.2999877929688px);}}@keyframes kf_el_ZuVBFg7Yp1_an_gcHOYM0m8{0%{-webkit-transform: translate(349.70001220703125px, 615.2999877929688px) scale(0, 0) translate(-349.70001220703125px, -615.2999877929688px);transform: translate(349.70001220703125px, 615.2999877929688px) scale(0, 0) translate(-349.70001220703125px, -615.2999877929688px);}33.33%{-webkit-transform: translate(349.70001220703125px, 615.2999877929688px) scale(1, 1) translate(-349.70001220703125px, -615.2999877929688px);transform: translate(349.70001220703125px, 615.2999877929688px) scale(1, 1) translate(-349.70001220703125px, -615.2999877929688px);}100%{-webkit-transform: translate(349.70001220703125px, 615.2999877929688px) scale(1, 1) translate(-349.70001220703125px, -615.2999877929688px);transform: translate(349.70001220703125px, 615.2999877929688px) scale(1, 1) translate(-349.70001220703125px, -615.2999877929688px);}}@-webkit-keyframes kf_el_MCdpXdZKWj_an_rGqnsZVYT{0%{-webkit-transform: translate(349.70001220703125px, 496.70001220703125px) scale(0, 0) translate(-349.70001220703125px, -496.70001220703125px);transform: translate(349.70001220703125px, 496.70001220703125px) scale(0, 0) translate(-349.70001220703125px, -496.70001220703125px);}33.33%{-webkit-transform: translate(349.70001220703125px, 496.70001220703125px) scale(1, 1) translate(-349.70001220703125px, -496.70001220703125px);transform: translate(349.70001220703125px, 496.70001220703125px) scale(1, 1) translate(-349.70001220703125px, -496.70001220703125px);}100%{-webkit-transform: translate(349.70001220703125px, 496.70001220703125px) scale(1, 1) translate(-349.70001220703125px, -496.70001220703125px);transform: translate(349.70001220703125px, 496.70001220703125px) scale(1, 1) translate(-349.70001220703125px, -496.70001220703125px);}}@keyframes kf_el_MCdpXdZKWj_an_rGqnsZVYT{0%{-webkit-transform: translate(349.70001220703125px, 496.70001220703125px) scale(0, 0) translate(-349.70001220703125px, -496.70001220703125px);transform: translate(349.70001220703125px, 496.70001220703125px) scale(0, 0) translate(-349.70001220703125px, -496.70001220703125px);}33.33%{-webkit-transform: translate(349.70001220703125px, 496.70001220703125px) scale(1, 1) translate(-349.70001220703125px, -496.70001220703125px);transform: translate(349.70001220703125px, 496.70001220703125px) scale(1, 1) translate(-349.70001220703125px, -496.70001220703125px);}100%{-webkit-transform: translate(349.70001220703125px, 496.70001220703125px) scale(1, 1) translate(-349.70001220703125px, -496.70001220703125px);transform: translate(349.70001220703125px, 496.70001220703125px) scale(1, 1) translate(-349.70001220703125px, -496.70001220703125px);}}@-webkit-keyframes kf_el_5kKLCT-6O8_an_YPZrsDh0g{0%{-webkit-transform: translate(349.70001220703125px, 371.29998779296875px) scale(0, 0) translate(-349.70001220703125px, -371.29998779296875px);transform: translate(349.70001220703125px, 371.29998779296875px) scale(0, 0) translate(-349.70001220703125px, -371.29998779296875px);}33.33%{-webkit-transform: translate(349.70001220703125px, 371.29998779296875px) scale(1, 1) translate(-349.70001220703125px, -371.29998779296875px);transform: translate(349.70001220703125px, 371.29998779296875px) scale(1, 1) translate(-349.70001220703125px, -371.29998779296875px);}100%{-webkit-transform: translate(349.70001220703125px, 371.29998779296875px) scale(1, 1) translate(-349.70001220703125px, -371.29998779296875px);transform: translate(349.70001220703125px, 371.29998779296875px) scale(1, 1) translate(-349.70001220703125px, -371.29998779296875px);}}@keyframes kf_el_5kKLCT-6O8_an_YPZrsDh0g{0%{-webkit-transform: translate(349.70001220703125px, 371.29998779296875px) scale(0, 0) translate(-349.70001220703125px, -371.29998779296875px);transform: translate(349.70001220703125px, 371.29998779296875px) scale(0, 0) translate(-349.70001220703125px, -371.29998779296875px);}33.33%{-webkit-transform: translate(349.70001220703125px, 371.29998779296875px) scale(1, 1) translate(-349.70001220703125px, -371.29998779296875px);transform: translate(349.70001220703125px, 371.29998779296875px) scale(1, 1) translate(-349.70001220703125px, -371.29998779296875px);}100%{-webkit-transform: translate(349.70001220703125px, 371.29998779296875px) scale(1, 1) translate(-349.70001220703125px, -371.29998779296875px);transform: translate(349.70001220703125px, 371.29998779296875px) scale(1, 1) translate(-349.70001220703125px, -371.29998779296875px);}}#el_VFBoHUjkN *{-webkit-animation-duration: 3s;animation-duration: 3s;-webkit-animation-iteration-count: infinite;animation-iteration-count: infinite;-webkit-animation-timing-function: cubic-bezier(0, 0, 1, 1);animation-timing-function: cubic-bezier(0, 0, 1, 1);}#el_VhEH98YsVd{opacity: 0.3;fill: #96D9F2;}#el_B1KHHbk2Ua{fill: #FFFFFF;stroke: #000000;stroke-width: 5;stroke-miterlimit: 10;}#el_5kKLCT-6O8{fill: #FFFFFF;stroke: #000000;stroke-width: 5;stroke-miterlimit: 10;}#el_MCdpXdZKWj{fill: #FFFFFF;stroke: #000000;stroke-width: 5;stroke-miterlimit: 10;}#el_ZuVBFg7Yp1{fill: #FFFFFF;stroke: #000000;stroke-width: 5;stroke-miterlimit: 10;}#el_Dg6-zvBdqj{fill: #FFFFFF;stroke: #000000;stroke-width: 5;stroke-miterlimit: 10;}#el_cEreFzZDk1{fill: #FFFFFF;stroke: #000000;stroke-width: 5;stroke-miterlimit: 10;}#el__mGbEXL5Ik{fill: #FFFFFF;stroke: #000000;stroke-width: 5;stroke-miterlimit: 10;}#el_Oa4yQTZR5H{fill: #FFFFFF;stroke: #000000;stroke-width: 5;stroke-miterlimit: 10;}#el_176xH1cqWu{fill: #FFFFFF;stroke: #000000;stroke-width: 5;stroke-miterlimit: 10;}#el_iU7yodGcvQ{fill: #FFF200;stroke: #000000;stroke-width: 5;stroke-miterlimit: 10;}#el_5kKLCT-6O8_an_YPZrsDh0g{-webkit-animation-fill-mode: backwards;animation-fill-mode: backwards;-webkit-transform: translate(349.70001220703125px, 371.29998779296875px) scale(0, 0) translate(-349.70001220703125px, -371.29998779296875px);transform: translate(349.70001220703125px, 371.29998779296875px) scale(0, 0) translate(-349.70001220703125px, -371.29998779296875px);-webkit-animation-name: kf_el_5kKLCT-6O8_an_YPZrsDh0g;animation-name: kf_el_5kKLCT-6O8_an_YPZrsDh0g;-webkit-animation-timing-function: cubic-bezier(0, 0, 1, 1);animation-timing-function: cubic-bezier(0, 0, 1, 1);}#el_MCdpXdZKWj_an_rGqnsZVYT{-webkit-animation-fill-mode: backwards;animation-fill-mode: backwards;-webkit-transform: translate(349.70001220703125px, 496.70001220703125px) scale(0, 0) translate(-349.70001220703125px, -496.70001220703125px);transform: translate(349.70001220703125px, 496.70001220703125px) scale(0, 0) translate(-349.70001220703125px, -496.70001220703125px);-webkit-animation-name: kf_el_MCdpXdZKWj_an_rGqnsZVYT;animation-name: kf_el_MCdpXdZKWj_an_rGqnsZVYT;-webkit-animation-timing-function: cubic-bezier(0, 0, 1, 1);animation-timing-function: cubic-bezier(0, 0, 1, 1);}#el_ZuVBFg7Yp1_an_gcHOYM0m8{-webkit-animation-fill-mode: backwards;animation-fill-mode: backwards;-webkit-transform: translate(349.70001220703125px, 615.2999877929688px) scale(0, 0) translate(-349.70001220703125px, -615.2999877929688px);transform: translate(349.70001220703125px, 615.2999877929688px) scale(0, 0) translate(-349.70001220703125px, -615.2999877929688px);-webkit-animation-name: kf_el_ZuVBFg7Yp1_an_gcHOYM0m8;animation-name: kf_el_ZuVBFg7Yp1_an_gcHOYM0m8;-webkit-animation-timing-function: cubic-bezier(0, 0, 1, 1);animation-timing-function: cubic-bezier(0, 0, 1, 1);}#el_Dg6-zvBdqj_an_pe9IeEF8y{-webkit-animation-fill-mode: backwards;animation-fill-mode: backwards;-webkit-transform: translate(349.5999755859375px, 703.2999877929688px) scale(0, 0) translate(-349.5999755859375px, -703.2999877929688px);transform: translate(349.5999755859375px, 703.2999877929688px) scale(0, 0) translate(-349.5999755859375px, -703.2999877929688px);-webkit-animation-name: kf_el_Dg6-zvBdqj_an_pe9IeEF8y;animation-name: kf_el_Dg6-zvBdqj_an_pe9IeEF8y;-webkit-animation-timing-function: cubic-bezier(0, 0, 1, 1);animation-timing-function: cubic-bezier(0, 0, 1, 1);}</style>

<ellipse cx="577.7" cy="554.4" rx="489.1" ry="455.5" id="el_VhEH98YsVd"/>
<path d="M840.3,903.3H315c-6.6,0-12-5.4-12-12v-636c0-6.6,5.4-12,12-12h525.3c6.6,0,12,5.4,12,12v636&#10;&#9;C852.3,897.9,846.9,903.3,840.3,903.3z" id="el_B1KHHbk2Ua"/>
<g id="el_5kKLCT-6O8_an_YPZrsDh0g" data-animator-group="true" data-animator-type="2"><path d="M656.3,383.3H361.7c-6.6,0-12-5.4-12-12v0c0-6.6,5.4-12,12-12h294.7c6.6,0,12,5.4,12,12v0&#10;&#9;C668.3,377.9,662.9,383.3,656.3,383.3z" id="el_5kKLCT-6O8"/></g>
<g id="el_MCdpXdZKWj_an_rGqnsZVYT" data-animator-group="true" data-animator-type="2"><path d="M658.3,516.7H359.7c-5.5,0-10-4.5-10-10v0c0-5.5,4.5-10,10-10h298.7c5.5,0,10,4.5,10,10v0&#10;&#9;C668.3,512.2,663.8,516.7,658.3,516.7z" id="el_MCdpXdZKWj"/></g>
<g id="el_ZuVBFg7Yp1_an_gcHOYM0m8" data-animator-group="true" data-animator-type="2"><path d="M658.3,635.3H359.7c-5.5,0-10-4.5-10-10l0,0c0-5.5,4.5-10,10-10h298.7c5.5,0,10,4.5,10,10l0,0&#10;&#9;C668.3,630.8,663.8,635.3,658.3,635.3z" id="el_ZuVBFg7Yp1"/></g>
<g id="el_Dg6-zvBdqj_an_pe9IeEF8y" data-animator-group="true" data-animator-type="2"><path d="M667.7,720.7H358.3c-4.8,0-8.7-3.9-8.7-8.7l0,0c0-4.8,3.9-8.7,8.7-8.7h309.3c4.8,0,8.7,3.9,8.7,8.7l0,0&#10;&#9;C676.3,716.8,672.4,720.7,667.7,720.7z" id="el_Dg6-zvBdqj"/></g>
<path d="M789.7,383.3H767c-6.6,0-12-5.4-12-12v0c0-6.6,5.4-12,12-12h22.7c6.6,0,12,5.4,12,12v0&#10;&#9;C801.7,377.9,796.3,383.3,789.7,383.3z" id="el_cEreFzZDk1"/>
<path d="M791.7,513.7H765c-5.5,0-10-4.5-10-10v0c0-5.5,4.5-10,10-10h26.7c5.5,0,10,4.5,10,10v0&#10;&#9;C801.7,509.2,797.2,513.7,791.7,513.7z" id="el__mGbEXL5Ik"/>
<path d="M789.7,640.7H767c-6.6,0-12-5.4-12-12v-1.3c0-6.6,5.4-12,12-12h22.7c6.6,0,12,5.4,12,12v1.3&#10;&#9;C801.7,635.3,796.3,640.7,789.7,640.7z" id="el_Oa4yQTZR5H"/>
<path d="M799.7,720.7h-36c-4.8,0-8.7-3.9-8.7-8.7l0,0c0-4.8,3.9-8.7,8.7-8.7h36c4.8,0,8.7,3.9,8.7,8.7l0,0&#10;&#9;C808.3,716.8,804.4,720.7,799.7,720.7z" id="el_176xH1cqWu"/>
<path d="M815,872.7H341.7c-6.6,0-12-5.4-12-12v-81.3c0-6.6,5.4-12,12-12H815c6.6,0,12,5.4,12,12v81.3&#10;&#9;C827,867.3,821.6,872.7,815,872.7z" id="el_iU7yodGcvQ"/>
</svg>