<svg version="1.1" id="el_57eMVAfXM" xmlns="http://www.w3.org/2000/svg" xmlns:xlink="http://www.w3.org/1999/xlink" x="0px" y="0px" viewBox="0 0 1133 1133" style="enable-background:new 0 0 1133.9 1133.9;" xml:space="preserve"><style>@-webkit-keyframes kf_el_HGehI9hRDE_an_TDDK3ACuq{0%{opacity: 0;}100%{opacity: 1;}}@keyframes kf_el_HGehI9hRDE_an_TDDK3ACuq{0%{opacity: 0;}100%{opacity: 1;}}@-webkit-keyframes kf_el_Oajt3ez6Yg_an_9JlLbaN2s{0%{opacity: 0;}100%{opacity: 1;}}@keyframes kf_el_Oajt3ez6Yg_an_9JlLbaN2s{0%{opacity: 0;}100%{opacity: 1;}}#el_57eMVAfXM *{-webkit-animation-duration: 3s;animation-duration: 3s;-webkit-animation-iteration-count: infinite;animation-iteration-count: infinite;-webkit-animation-timing-function: cubic-bezier(0, 0, 1, 1);animation-timing-function: cubic-bezier(0, 0, 1, 1);}#el_ZmO5oi1hN3{opacity: 0.3;fill: #96D9F2;}#el_obo1XnhtCM{fill: #8AB4E0;}#el_JIOI89Qr_r{fill: #FEDABF;}#el_YLtKRDy6AZ{fill: #9E6327;}#el_u7tPEk5F0q{fill: #FFFFFF;}#el_1NMxkBfPak{fill: #FFFFFF;}#el_Oajt3ez6Yg{-webkit-animation-fill-mode: backwards;animation-fill-mode: backwards;opacity: 0;-webkit-animation-name: kf_el_Oajt3ez6Yg_an_9JlLbaN2s;animation-name: kf_el_Oajt3ez6Yg_an_9JlLbaN2s;-webkit-animation-timing-function: cubic-bezier(0, 0, 1, 1);animation-timing-function: cubic-bezier(0, 0, 1, 1);}#el_HGehI9hRDE{-webkit-animation-fill-mode: backwards;animation-fill-mode: backwards;opacity: 0;-webkit-animation-name: kf_el_HGehI9hRDE_an_TDDK3ACuq;animation-name: kf_el_HGehI9hRDE_an_TDDK3ACuq;-webkit-animation-timing-function: cubic-bezier(0, 0, 1, 1);animation-timing-function: cubic-bezier(0, 0, 1, 1);}</style>

<rect x="178.4" y="264.9" width="822" height="631.5" id="el_ZmO5oi1hN3"/>
<path d="M473.3,726.7c0,0-293.2,169.7-183.7,169.7s598.5,0,598.5,0S752,691.8,679.8,711.2S473.3,726.7,473.3,726.7z" id="el_obo1XnhtCM"/>
<ellipse cx="571" cy="570.1" rx="142" ry="189" id="el_JIOI89Qr_r"/>
<path d="M429,559c0,0,21,80,62,82s56-9,56-9s-1,21,28,16s20-16,20-16s30,24,65,2s48-67.1,48-67.1S713,703,656,735s-65,29-65,29&#10;&#9;s-3.9,23-22.4,17c-18.6-6-30.6-20-30.6-20s-84-26-95-79S429,559,429,559z" id="el_HGehI9hRDE"/>
<path d="M713,510" id="el_YLtKRDy6AZ"/>
<path d="M428.7,546.3c0,0-22-149,40-195s124-73,163-73s124-10,104,40s-43.8,90.2-27.9,93.6c15.9,3.4,4.9,128.4,4.9,128.4l-4.9,45&#10;&#9;c0,0-64.1-107-57.1-115s-146,56-170,35c-24-21-41,69-41,69l-11,21V546.3z" id="el_Oajt3ez6Yg"/>
<path d="M473.3,531.3c0,0,32.7-16,54.7-4.7C550,538,473.3,531.3,473.3,531.3z" id="el_Vzglao5jnw"/>
<path d="M589.3,518c0,0,44-16,54-8s0,8,0,8l-54,4.6V518z" id="el_tArzvPRMr5"/>
<path d="M483.6,541c0,0,18.8-6.6,41.9,0c23.2,6.6,10,4.2,10,4.2s-43.8,19.9-52,11.8C475.5,548.9,483.6,541,483.6,541z" id="el_u7tPEk5F0q"/>
<path d="M589.3,538.1c0,0,42.7-20.9,50.7-10.1C648,538.7,622,550.1,589.3,538.1z" id="el_1NMxkBfPak"/>
<circle cx="501.9" cy="546.9" r="8.1" id="el_-itbidEwyQ"/>
<circle cx="617.6" cy="536.3" r="7" id="el_Ss93x-JaHt"/>
<path d="M429.4,555.1c0,0-12.8-92.4,4.6-117.7c17.3-25.3,118-129.8,203.3-56.2s75.7,22.2,75.7,22.2s-36.5,35.5-20.1,69.8&#10;&#9;s29.3,59.5,15.2,54.9c-14.1-4.6-66.6-39.3-60.3-63.3s-179.1,30.7-179.1,30.7s-43.3,55.3-28,78C456,596,429,559,429,559" id="el_PJEn3DSbXG"/>
</svg>