<svg version="1.1" id="el_cwLIt6I3j" xmlns="http://www.w3.org/2000/svg" xmlns:xlink="http://www.w3.org/1999/xlink" x="0px" y="0px" viewBox="0 0 1133 1133" style="enable-background:new 0 0 1133.9 1133.9;" xml:space="preserve"><style>@-webkit-keyframes kf_el_i_flCTinyD_an_Sw7gqVItG{0%{opacity: 0;}83.33%{opacity: 1;}100%{opacity: 1;}}@keyframes kf_el_i_flCTinyD_an_Sw7gqVItG{0%{opacity: 0;}83.33%{opacity: 1;}100%{opacity: 1;}}#el_cwLIt6I3j *{-webkit-animation-duration: 3s;animation-duration: 3s;-webkit-animation-iteration-count: infinite;animation-iteration-count: infinite;-webkit-animation-timing-function: cubic-bezier(0, 0, 1, 1);animation-timing-function: cubic-bezier(0, 0, 1, 1);}#el_B2HlYbM4lN{opacity: 0.3;fill: #95D8F1;}#el_SARYMPE9d_{fill: #FBC8B4;}#el_aVSvHE8iC8{fill: #010101;}#el_Q8en0SmCMv{fill: #010101;}#el_Bd_vbDMKZP{fill: #010101;}#el_SzWvs9GJR6{fill: #010101;}#el_GGo2tkgDjk{fill: #FBC8B4;}#el_Hkopo2so9G{fill: #FFFFFF;}#el_jVVe-b2Nsx{fill: #231F20;}#el_wDQnAbbU9u{fill: #FFFFFF;}#el_Fd7Eppovo7U{fill: #231F20;-webkit-transform: matrix(0.9611, -0.2761, 0.2761, 0.9611, -128.2388, 191.3752);transform: matrix(0.9611, -0.2761, 0.2761, 0.9611, -128.2388, 191.3752);}#el_i_flCTinyD{-webkit-animation-fill-mode: backwards;animation-fill-mode: backwards;opacity: 0;-webkit-animation-name: kf_el_i_flCTinyD_an_Sw7gqVItG;animation-name: kf_el_i_flCTinyD_an_Sw7gqVItG;-webkit-animation-timing-function: cubic-bezier(0, 0, 1, 1);animation-timing-function: cubic-bezier(0, 0, 1, 1);}</style>

<rect x="156.1" y="238.6" width="822" height="631.5" id="el_B2HlYbM4lN"/>
<ellipse cx="577.7" cy="560.7" rx="176" ry="124.7" id="el_SARYMPE9d_"/>
<g id="el_UQL5YfuZLU">
	<g id="el_DGEou5s3fD">
		<g id="el_roh9BMlyZj">
			<g id="el_vBpbPHuv0-">
				<path d="M524.5,538.6c-14.1,0-25.6,11.5-25.6,25.6s11.5,25.6,25.6,25.6c14.1,0,25.5-11.4,25.5-25.6&#10;&#9;&#9;&#9;&#9;&#9;C550.1,550,538.6,538.6,524.5,538.6z M529.8,580.4c-7.2,0-13.1-5.9-13.1-13.1c0-7.2,5.9-13.1,13.1-13.1&#10;&#9;&#9;&#9;&#9;&#9;c7.2,0,13.1,5.9,13.1,13.1C542.9,574.5,537,580.4,529.8,580.4z" id="el_aVSvHE8iC8"/>
				<path d="M631.9,538.6c-14.1,0-25.5,11.5-25.5,25.6s11.5,25.6,25.5,25.6c14.1,0,25.6-11.5,25.6-25.6&#10;&#9;&#9;&#9;&#9;&#9;C657.5,550,646,538.6,631.9,538.6z M626.7,580.4c-7.2,0-13.1-5.9-13.1-13.1c0-7.2,5.8-13.1,13.1-13.1c7.2,0,13.1,5.9,13.1,13.1&#10;&#9;&#9;&#9;&#9;&#9;S633.9,580.4,626.7,580.4z" id="el_Q8en0SmCMv"/>
			</g>
			<path d="M681.9,715.9c-8.1,0-32.2,0.1-37.5,0.1c-0.1,0-0.2,0-0.3,0s-0.2,0-0.3,0c-0.3,0-0.4,0-0.4,0l0,0&#10;&#9;&#9;&#9;&#9;c-3.9,0.3-7.3,2.4-9.3,5.5l0,0c0,0-0.1,0.2-0.4,0.6c0,0,0,0.1-0.1,0.1c-4.4,7.5-41.1,69.3-55.2,69.7&#10;&#9;&#9;&#9;&#9;c-14.2-0.4-50.8-62.2-55.2-69.7c0,0,0-0.1-0.1-0.1c-0.2-0.4-0.4-0.6-0.4-0.6l0,0c-2-3.1-5.4-5.2-9.3-5.5l0,0c0,0-0.2,0-0.4,0&#10;&#9;&#9;&#9;&#9;c-0.1,0-0.2,0-0.3,0s-0.2,0-0.3,0c-5.3,0-29.5-0.1-37.5-0.1c-36.4,0-85,33.1-85,75.3s0,67.5,0,67.5h188.5h0.2h0.2h188.5&#10;&#9;&#9;&#9;&#9;c0,0,0-25.3,0-67.5C766.9,749,718.2,715.9,681.9,715.9z" id="el_Bd_vbDMKZP"/>
			<path d="M805.3,521c2.1-9.8,12.5-19.1,12.5-29.4s-10.6-19.5-12.7-29.4c-2-9.9,4.2-22.4,0.4-31.9&#10;&#9;&#9;&#9;&#9;c-3.8-9.3-17-14-22.4-22.8c-5.4-8.6-3.8-22.4-10.7-30.1c-6.6-7.6-20.7-8-28.5-14.6c-7.7-6.4-10.2-20.3-19-25.7&#10;&#9;&#9;&#9;&#9;c-8.5-5.3-21.9-1.9-31.3-6.4c-9-4.2-15-16.8-24.8-20.1c-9.5-3.2-21.9,3.3-31.9,1.1c-9.8-2.1-18.4-13.3-28.6-14.3&#10;&#9;&#9;&#9;&#9;c-9.6-1-20,7.2-30,7.7c-10-0.5-20.4-8.8-30-7.7c-10.2,1.1-18.8,12.2-28.6,14.3c-10.1,2.3-22.4-4.2-31.9-1.1&#10;&#9;&#9;&#9;&#9;c-9.8,3.3-15.8,15.9-24.8,20.1c-9.4,4.5-22.8,1.1-31.3,6.4c-8.7,5.4-11.3,19.3-19,25.7c-7.8,6.6-21.9,7-28.5,14.6&#10;&#9;&#9;&#9;&#9;c-6.9,7.7-5.3,21.5-10.7,30.1c-5.4,8.7-18.6,13.5-22.4,22.8c-3.8,9.5,2.4,22,0.4,31.9c-2.1,9.9-12.7,19.1-12.7,29.4&#10;&#9;&#9;&#9;&#9;s10.3,19.6,12.5,29.4c2,10.1-4.1,22.5-0.4,31.9c3.8,9.4,17,14,22.4,22.8c5.3,8.6,3.8,22.4,10.7,30.1c6.4,7.2,19.3,7.8,27.3,13.7&#10;&#9;&#9;&#9;&#9;c1.7,2.1,3.6,4,5.4,5.8c4.8,7,8,16.1,14.7,20.8c14.5,10.1,31.1,11.1,31.1,11.1c7.6,7.3,15.8,14.1,24.5,20.1&#10;&#9;&#9;&#9;&#9;c28.5,19.8,60,30.5,91.3,30.9l0,0h0.1h0.1l0,0c31.2-0.5,62.8-11.1,91.3-30.9c8.6-6,16.8-12.8,24.5-20.1c0,0,16.1,0,31.1-11.1&#10;&#9;&#9;&#9;&#9;c8.6-6.4,9.9-13.8,14.7-20.8c1.9-1.9,3.7-3.7,5.4-5.8c8-5.8,20.9-6.5,27.3-13.7c6.9-7.7,5.4-21.5,10.7-30.1&#10;&#9;&#9;&#9;&#9;c5.4-8.7,18.6-13.4,22.4-22.8C809.4,543.6,803.3,531.1,805.3,521z M736.2,582.8c-2.5,7.9-11.7,6.8-12.3,6.7l-8.2-0.6l-3.5,6.7&#10;&#9;&#9;&#9;&#9;c-22.1,42.8-73.3,88.8-134,89.8c-60.7-1-111.9-47-134-89.8l-3.5-6.7l-8.2,0.6c-0.6,0-9.8,1.2-12.3-6.7s0.6-41.7,12.8-44.8&#10;&#9;&#9;&#9;&#9;c3.2-0.7,6.7,1.7,16.1,0.7s1.2-59.6,20.5-67c3.5-1.3,6.2-1.1,9.1-0.5c10.3,2,19.3,18.9,31,20.3c10.7,1.2,23.3-13.3,34.9-12.6&#10;&#9;&#9;&#9;&#9;c11,0.5,21.9,16.3,33.4,16.3c0.1,0,0.1,0,0.2,0c0.1,0,0.1,0,0.2,0c11.5,0,22.4-15.8,33.4-16.3c11.5-0.7,24.1,13.8,34.9,12.6&#10;&#9;&#9;&#9;&#9;c11.7-1.3,20.7-18.3,31-20.3c2.9-0.5,5.7-0.8,9.1,0.5c19.3,7.4,11.1,66.1,20.5,67c9.4,1,12.9-1.4,16.1-0.7&#10;&#9;&#9;&#9;&#9;C735.6,541.1,738.6,574.8,736.2,582.8z" id="el_SzWvs9GJR6"/>
		</g>
	</g>
</g>
<path d="M488,538.6c0,0,0.4-1,1.6-2.4c4.1-4.6,18-13,60.4-1.1c55.4,15.5,107.4-14,107.4-14s52,47,22.5,64.5&#10;&#9;S587.5,603,574.5,593s-55.1,29-75.5,12.5S488,538.6,488,538.6z" id="el_GGo2tkgDjk"/>
<path d="M429.3,542.4c0,0,15.3,28.7,26,1.6c10.7-27.1,14-62.4,14-62.4s85.6,40.2,193.8,3.8s-54.2,44.1,44.2,58.8s26,49.5,26,49.5&#10;&#9;s102.2-35.9,84.5-110.7s-59.6-236.6-267.7-193.8s-230,173.4-211.4,237s63.6,112.2,80.8,96.4s-8.8-46.4,5.2-69.8&#10;&#9;C438.7,529.1,429.3,542.4,429.3,542.4z" id="el_i_flCTinyD"/>
<path d="M490.1,553.4c0,0,20.7-16.5,46.6-6.1c25.9,10.4,15.5,6.1,15.5,6.1s-39.4,33-52.9,22.6&#10;&#9;c-13.5-10.4-13.5-10.4-13.5-10.4L490.1,553.4z" id="el_Hkopo2so9G"/>
<circle cx="515.7" cy="558.3" r="10.7" id="el_jVVe-b2Nsx"/>
<path d="M633.9,540c0,0-20.9-10-39.1,5.3c-18.2,15.3-10.9,9.1-10.9,9.1s40.2,20.4,48.4,8s8.2-12.4,8.2-12.4L633.9,540z" id="el_wDQnAbbU9u"/>
<ellipse cx="615.5" cy="551.1" rx="8.2" ry="10.7" id="el_Fd7Eppovo7U"/>
</svg>