<svg version="1.1" id="el_OWSXlqc9e" xmlns="http://www.w3.org/2000/svg" xmlns:xlink="http://www.w3.org/1999/xlink" x="0px" y="0px" viewBox="0 0 400 400" style="enable-background:new 0 0 400 400;" xml:space="preserve"><style>@-webkit-keyframes kf_el_wCxPnmzcUD_an_mq7tJiDpR{0%{opacity: 0;}33.33%{opacity: 1;}100%{opacity: 1;}}@keyframes kf_el_wCxPnmzcUD_an_mq7tJiDpR{0%{opacity: 0;}33.33%{opacity: 1;}100%{opacity: 1;}}#el_OWSXlqc9e *{-webkit-animation-duration: 3s;animation-duration: 3s;-webkit-animation-iteration-count: infinite;animation-iteration-count: infinite;-webkit-animation-timing-function: cubic-bezier(0, 0, 1, 1);animation-timing-function: cubic-bezier(0, 0, 1, 1);}#el_eilxPfvDpz{opacity: 0.3;fill: #96D9F2;}#el_NytB5RKrVC{fill: #FEEA32;}#el_6t1BqCLnDW{fill: #FFFFFF;}#el_ToaHo50QhM{fill: #DE1D40;}#el_6tgtTgeAe6{fill: #2C4A22;}#el_H1Dmp0qsTe{fill: #FEEA32;stroke: #000000;stroke-miterlimit: 10;}#el_3XqjDMnHPA{fill: #078B44;}#el_IP6QHSQRmU{fill: #72BF44;}#el_oFDcWH1Klq{fill: #96D9F2;stroke: #000000;stroke-width: 3;stroke-miterlimit: 10;}#el_Sqwghcba9X{fill: #FFFFFF;stroke: #000000;stroke-width: 3;stroke-miterlimit: 10;}#el_aDayfmH1HL{fill: #FEDAB5;stroke: #000000;stroke-miterlimit: 10;}#el_wCxPnmzcUD{-webkit-animation-fill-mode: backwards;animation-fill-mode: backwards;opacity: 0;-webkit-animation-name: kf_el_wCxPnmzcUD_an_mq7tJiDpR;animation-name: kf_el_wCxPnmzcUD_an_mq7tJiDpR;-webkit-animation-timing-function: cubic-bezier(0, 0, 1, 1);animation-timing-function: cubic-bezier(0, 0, 1, 1);}</style>

<ellipse cx="199.8" cy="200.7" rx="158.4" ry="147.5" id="el_eilxPfvDpz"/>
<g id="el_jeWBbnWiXk">
	<path d="M282.1,240.5h-90c-4,0-7.3-3.3-7.3-7.3v-49.7c0-4,3.3-7.3,7.3-7.3h90c4,0,7.3,3.3,7.3,7.3v49.7&#10;&#9;&#9;C289.3,237.3,286.1,240.5,282.1,240.5z" id="el_NytB5RKrVC"/>
	<rect x="202.3" y="190.4" width="24.1" height="14.4" id="el_6t1BqCLnDW"/>
	<ellipse cx="248" cy="221.4" rx="10.9" ry="9" id="el_ToaHo50QhM"/>
	<ellipse cx="262.8" cy="221.4" rx="10.9" ry="9" id="el_6tgtTgeAe6"/>
	<line x1="198.7" y1="225.5" x2="223.5" y2="225.5" id="el_H1Dmp0qsTe"/>
</g>
<g id="el_wCxPnmzcUD">
	<path d="M282.1,240.5h-90c-4,0-7.3-3.3-7.3-7.3v-49.7c0-4,3.3-7.3,7.3-7.3h90c4,0,7.3,3.3,7.3,7.3v49.7&#10;&#9;&#9;C289.3,237.3,286.1,240.5,282.1,240.5z" id="el_3XqjDMnHPA"/>
	<polygon points="202,189 268,189 272.3,197 272.3,228.3 202,228.3 196.3,222 196.3,191 &#9;" id="el_IP6QHSQRmU"/>
	<circle cx="235.1" cy="210.8" r="13.1" id="el_MHQhrRHCsS"/>
</g>
<path d="M118.5,298l-25.9-27.7c-3.8-4.1-3.6-10.6,0.5-14.4l4.4-4.1c4.1-3.8,10.6-3.6,14.4,0.5l25.9,27.7&#10;&#9;c3.8,4.1,3.6,10.6-0.5,14.4l-4.4,4.1C128.8,302.3,122.4,302.1,118.5,298z" id="el_oFDcWH1Klq"/>
<polygon points="111.8,252.3 118.3,246 141.3,271 136.2,278.4 " id="el_Sqwghcba9X"/>
<path d="M117.9,244.7c0,0,18.6-15.3,16.9-21c-1.7-5.7,9-58,18.3-66s22.4-5,19.6,0c-2.8,5-20.3,24-20.3,24&#10;&#9;s35.5-41.5,45.8-28.9c10.3,12.6-41.7,33.9-41.7,33.9s38.6-25.4,50-11.7c11.4,13.7-25.9,7-35.5,17.7s-12.7,22.7-7.7,29.7&#10;&#9;c5,7,11.2,20.7,30.1,18.3c19-2.3,23.1,6.7,10.7,12.3c-12.4,5.7-52,1.8-58.6,16c-6.6,14.2-4.5,0-4.5,0L117.9,244.7z" id="el_aDayfmH1HL"/>
</svg>