<?xml version="1.0" encoding="iso-8859-1"?>
<!-- Generator: Adobe Illustrator 19.0.0, SVG Export Plug-In . SVG Version: 6.00 Build 0)  -->
<svg version="1.1" id="Layer_1" xmlns="http://www.w3.org/2000/svg" xmlns:xlink="http://www.w3.org/1999/xlink" x="0px" y="0px"
	 viewBox="0 0 512 512" style="enable-background:new 0 0 512 512;" xml:space="preserve">
<path style="fill:#757982;" d="M437,150h-61c-8.291,0-15-6.709-15-15V75c0-8.291,6.709-15,15-15h61c8.291,0,15,6.709,15,15v60
	C452,143.291,445.291,150,437,150z"/>
<path style="fill:#C4CAD9;" d="M467,120H45c-24.853,0-45,20.147-45,45v226h512V165C512,140.147,491.853,120,467,120z"/>
<path style="fill:#B8BFCC;" d="M467,120H256v271h256V165C512,140.147,491.853,120,467,120z"/>
<path style="fill:#FFEACC;" d="M226,210H106c-8.291,0-15-6.709-15-15V45c0-8.291,6.709-15,15-15h120c8.291,0,15,6.709,15,15v150
	C241,203.291,234.291,210,226,210z"/>
<path style="fill:#FFDBB2;" d="M226,30h-60v180h60c8.291,0,15-6.709,15-15V45C241,36.709,234.291,30,226,30z"/>
<g>
	<path style="fill:#5C5F66;" d="M467,512H45c-24.853,0-45-20.147-45-45V360h512v107C512,491.853,491.853,512,467,512z"/>
	<path style="fill:#5C5F66;" d="M256,210H76c-8.291,0-16-6.709-16-15s7.709-15,16-15h180c8.291,0,15,6.709,15,15
		S264.291,210,256,210z"/>
	<path style="fill:#5C5F66;" d="M136,270h-30c-8.291,0-15-6.709-15-15s6.709-15,15-15h30c8.291,0,15,6.709,15,15
		C151,263.291,144.291,270,136,270z"/>
	<path style="fill:#5C5F66;" d="M136,330h-30c-8.291,0-15-6.709-15-15s6.709-15,15-15h30c8.291,0,15,6.709,15,15
		S144.291,330,136,330z"/>
	<path style="fill:#5C5F66;" d="M226,270h-30c-8.291,0-15-6.709-15-15s6.709-15,15-15h30c8.291,0,15,6.709,15,15
		C241,263.291,234.291,270,226,270z"/>
	<path style="fill:#5C5F66;" d="M226,330h-30c-8.291,0-15-6.709-15-15s6.709-15,15-15h30c8.291,0,15,6.709,15,15
		S234.291,330,226,330z"/>
</g>
<g>
	<path style="fill:#53565C;" d="M346,330h-30c-8.291,0-15-6.709-15-15s6.709-15,15-15h30c8.291,0,15,6.709,15,15
		S354.291,330,346,330z"/>
	<path style="fill:#53565C;" d="M437,330h-30c-8.291,0-15-6.709-15-15s6.709-15,15-15h30c8.291,0,15,6.709,15,15
		S445.291,330,437,330z"/>
</g>
<path style="fill:#E6EEFF;" d="M437,270H316c-8.291,0-15-6.709-15-15v-60c0-8.291,6.709-15,15-15h121c8.291,0,15,6.709,15,15v60
	C452,263.291,445.291,270,437,270z"/>
<path style="fill:#A1A7B3;" d="M286,452h-60c-8.291,0-15-6.709-15-15s6.709-15,15-15h60c8.291,0,15,6.709,15,15S294.291,452,286,452
	z"/>
<path style="fill:#F2CA9E;" d="M151,30v45c0,8.291,6.709,15,15,15s15-6.709,15-15V30H151z"/>
<path style="fill:#E6BB8A;" d="M166,90c8.291,0,15-6.709,15-15V30h-15V90z"/>
<g>
	<path style="fill:#53565C;" d="M256,180h-90v30h90c8.291,0,15-6.709,15-15S264.291,180,256,180z"/>
	<path style="fill:#53565C;" d="M256,512h211c24.853,0,45-20.147,45-45V360H256V512z"/>
</g>
<path style="fill:#979CA7;" d="M286,422h-30v30h30c8.291,0,15-6.709,15-15S294.291,422,286,422z"/>
<path style="fill:#53565C;" d="M497,90H316c-8.291,0-15-6.709-15-15V15c0-8.291,6.709-15,15-15h181c8.291,0,15,6.709,15,15v60
	C512,83.291,505.291,90,497,90z"/>
<path style="fill:#51DAE6;" d="M331,60h151V30H331V60z"/>
<g>
</g>
<g>
</g>
<g>
</g>
<g>
</g>
<g>
</g>
<g>
</g>
<g>
</g>
<g>
</g>
<g>
</g>
<g>
</g>
<g>
</g>
<g>
</g>
<g>
</g>
<g>
</g>
<g>
</g>
</svg>
