<svg id="Layer_3" enable-background="new 0 0 64 64" height="512" viewBox="0 0 64 64" width="512" xmlns="http://www.w3.org/2000/svg"><g><path d="m22 62v-20.993c0-2.9 2.074-5.385 4.927-5.903l11.073-2.104h8l11.073 2.104c2.853.519 4.927 3.004 4.927 5.903v20.993z" fill="#f2c351"/><path d="m31.359 58.352c10.412 0 18.852-8.44 18.852-18.852 0-2.055-.34-4.028-.948-5.88l-3.263-.62h-8l-11.073 2.104c-2.853.519-4.927 3.004-4.927 5.903v14.843c2.76 1.583 5.949 2.502 9.359 2.502z" fill="#f7d881"/><path d="m15 47h-11c-1.105 0-2-.895-2-2v-14c0-1.105.895-2 2-2h26c1.105 0 2 .895 2 2v14c0 1.105-.895 2-2 2h-11" fill="#758190"/><path d="m26.926 29h-22.926c-1.105 0-2 .895-2 2v14c0 1.105.895 2 2 2h11 3.287c4.92-4.548 8.146-10.897 8.639-18z" fill="#8892a0"/><path d="m52 47v-12.86l4 .76v12.1z" fill="#e39854"/><path d="m38 29v3c0 2.209 1.791 4 4 4 2.209 0 4-1.791 4-4v-3" fill="#fadfb2"/><path d="m33 15v6c0 4.971 4.029 9 9 9 4.971 0 9-4.029 9-9v-6l-2-4-1.6 1.2c-1.558 1.168-3.453 1.8-5.4 1.8-1.947 0-3.842-.632-5.4-1.8l-1.6-1.2z" fill="#fadfb2"/><path d="m34.845 5.12 1.732-1.303c1.573-1.179 3.486-1.817 5.452-1.817 1.299 0 2.583.279 3.765.817l2.79 1.271c1.305.594 2.398 1.571 3.136 2.8 1.172 1.954 1.332 4.353.43 6.445l-1.15 2.667v-1l-2-4-1.6 1.2c-1.558 1.168-3.453 1.8-5.4 1.8-1.947 0-3.842-.632-5.4-1.8l-1.6-1.2-2 4v1l-1.716-3.433c-.8-1.599-.727-3.496.193-5.029.75-1.249 1.976-2.114 3.368-2.418z" fill="#976947"/><path d="m33 16h-1c-1.105 0-2 .895-2 2 0 1.105.895 2 2 2h1" fill="#fadfb2"/><path d="m51 16h1c1.105 0 2 .895 2 2 0 1.105-.895 2-2 2h-1" fill="#fadfb2"/><path d="m28 56v-9h28v9" fill="#c16b3f"/><path d="m2 56h54v6h-54z" fill="#8892a0"/><path d="m2 56h54v3h-54z" fill="#a8b0bc"/><path d="m15 56v-18h4v18" fill="#d5cec2"/><path d="m28 47v9h12.472c3.626-2.007 6.518-5.173 8.18-9z" fill="#e39854"/><path d="m15 49.603c1.437-.966 2.776-2.066 4-3.283v-8.32h-4z" fill="#e7e4dd"/><path d="m62.998 41.007c0-3.385-2.416-6.282-5.738-6.885l-10.279-1.953c.002-.057.017-.111.017-.168v-2.353c2.985-1.733 5.002-4.956 5.002-8.648 1.653 0 2.998-1.346 2.998-3 0-1.484-1.085-2.711-2.5-2.95l.57-1.321c1.027-2.382.844-5.132-.491-7.356-.846-1.409-2.083-2.514-3.579-3.195l-2.79-1.271c-3.297-1.5-7.336-1.062-10.232 1.11l-1.577 1.183.002.003c-1.561.407-2.937 1.411-3.782 2.822-1.103 1.836-1.188 4.076-.23 5.99l1.022 2.045c-1.374.275-2.412 1.488-2.412 2.941 0 1.654 1.346 3 2.999 3h.001c0 3.691 2.016 6.914 5 8.647v2.352c0 .058.015.111.017.168l-4.017.764v-1.932c0-1.654-1.346-3-3-3h-25.999c-1.654 0-3 1.346-3 3v14c0 1.654 1.346 3 3 3h10v7h-12c-.553 0-1 .447-1 1v6c0 .553.447 1 1 1h53.998 6.001c.266 0 .521-.105.708-.293s.293-.442.292-.707zm-10.999-24.007c.551 0 .999.449.999 1s-.447 1-.998 1h-.001zm-20 2c-.552 0-1-.449-1-1s.448-1 1-1zm.178-6.881c-.65-1.299-.592-2.82.157-4.066.759-1.267 2.148-2.053 3.625-2.053 1.568 0 3.023.779 3.894 2.083l.313.471 1.665-1.109-.314-.471c-.901-1.352-2.247-2.302-3.771-2.724 2.264-1.403 5.199-1.631 7.634-.523l2.79 1.271c1.126.513 2.057 1.344 2.693 2.404 1.004 1.674 1.143 3.743.369 5.535l-.068.158-1.271-2.542c-.132-.266-.376-.458-.664-.526-.289-.064-.593-.003-.83.173l-1.6 1.2c-1.375 1.032-3.08 1.6-4.8 1.6s-3.425-.568-4.8-1.6l-1.601-1.2c-.237-.177-.538-.239-.83-.173-.288.068-.532.261-.664.526l-1.356 2.711zm1.822 8.881v-5.765l1.358-2.717.642.482c1.719 1.29 3.851 2 6.001 2 2.149 0 4.28-.71 5.999-2l.641-.481 1.359 2.717.001 5.764c0 4.411-3.59 8-8.001 8-4.412 0-8-3.589-8-8zm10.999 9.539v1.461c0 1.654-1.346 2.999-2.999 2.999-1.654 0-3-1.345-3-2.999v-1.461c.948.298 1.956.461 3.001.461 1.044 0 2.051-.163 2.998-.461zm-11.999 4.428 4.486-.853c.8 1.698 2.516 2.884 4.515 2.884 1.998 0 3.713-1.186 4.512-2.885l4.487.853v11.034h-18zm-28.999 11.032c-.552 0-1-.448-1-1v-13.999c0-.552.448-1 1-1h25.999c.552 0 1 .448 1 1v15h-11v-8c0-.553-.447-1-1-1h-3.999c-.553 0-1 .447-1 1v8h-10zm23 2v7h-4.001v-7zm-6 0v7h-1.001v-7zm-3.001-8.999v16h-1.999v-16zm37 21.999h-51.999v-4h51.999zm0-5.999h-25.999v-7h25.999zm-2.001-9v-10.653l2.001.38.001 10.273zm4.001 15v-5-9h.001l-.002-10.883c2.323.475 4 2.509 4 4.891l.001 19.992z"/></g></svg>