<svg id="Layer_1" enable-background="new 0 0 497 497" height="512" viewBox="0 0 497 497" width="512" xmlns="http://www.w3.org/2000/svg"><g><path d="m471.494 497h-401.56c-14.087 0-25.506-11.42-25.506-25.506v-445.988c0-14.086 11.419-25.506 25.506-25.506h401.559c14.087 0 25.507 11.42 25.507 25.506v445.987c0 14.087-11.42 25.507-25.506 25.507z" fill="#fff5f6"/><path d="m471.494 0h-40c14.086 0 25.506 11.42 25.506 25.506v445.987c0 14.087-11.42 25.507-25.506 25.507h40c14.086 0 25.506-11.42 25.506-25.506v-445.988c0-14.086-11.42-25.506-25.506-25.506z" fill="#f7e9eb"/><g><path d="m44.428 313.392v158.102c0 14.087 11.42 25.506 25.506 25.506h401.56c14.086 0 25.506-11.42 25.506-25.506v-158.102z" fill="#fc4378"/></g><path d="m457 313.392v158.102c0 14.086-11.42 25.506-25.506 25.506h40c14.086 0 25.506-11.42 25.506-25.506v-158.102z" fill="#ed2860"/><g fill="#ffc326"><path d="m0 96.027 56.427-.669h.163c10.971 0 19.908 8.849 19.996 19.839.089 11.045-8.793 20.071-19.839 20.16l-56.427.669c-.055 0-.109 0-.163 0z"/><path d="m2.612 361.644 56.427-.669h.163c10.971 0 19.908 8.849 19.996 19.839.089 11.045-8.793 20.071-19.839 20.16l-56.427.669c-.055 0-.109 0-.163 0z"/></g><g><path d="m409.172 250.772h-276.916c-8.284 0-15-6.716-15-15s6.716-15 15-15h276.916c8.284 0 15 6.716 15 15s-6.716 15-15 15z" fill="#c2e7fc"/><path d="m255.714 116.051v-34.516c0-8.284 6.716-15 15-15s15 6.716 15 15v34.516z" fill="#c2e7fc"/><g><path d="m144.992 220.773c0-68.882 55.84-124.722 124.722-124.722s124.722 55.84 124.722 124.722z" fill="#dbf2ff"/></g><path d="m269.714 96.051c-6.809 0-13.487.554-20 1.604 59.373 9.571 104.722 61.045 104.722 123.118h40c0-68.882-55.84-124.722-124.722-124.722z" fill="#d1eeff"/><g><path d="m402.707 373.808h-263.986c-4.143 0-7.5 3.358-7.5 7.5s3.357 7.5 7.5 7.5h263.986c4.143 0 7.5-3.358 7.5-7.5s-3.357-7.5-7.5-7.5z" fill="#fff5f6"/><path d="m357.707 425.816h-173.986c-4.143 0-7.5 3.358-7.5 7.5s3.357 7.5 7.5 7.5h173.986c4.143 0 7.5-3.358 7.5-7.5s-3.357-7.5-7.5-7.5z" fill="#fff5f6"/><path d="m299.371 141.761c15.688 5.865 29.106 16.229 38.803 29.971 1.461 2.07 3.779 3.176 6.135 3.176 1.494 0 3.004-.445 4.317-1.373 3.385-2.388 4.191-7.068 1.804-10.452-11.442-16.215-27.282-28.447-45.807-35.372-3.876-1.45-8.2.519-9.651 4.398-1.451 3.88.519 8.202 4.399 9.652z" fill="#fff"/></g></g></g></svg>