<svg height="512" viewBox="0 0 64 64" width="512" xmlns="http://www.w3.org/2000/svg"><g id="Cooking-food-hot-kitchen-restaurant-coronavirus-covid-covid19"><path d="m29 9h6v7h-6z" fill="#e9e9ea"/><path d="m8 22h48v32h-48z" fill="#e9e9ea"/><path d="m43 52c0-2.761 5-10 5-10s5 7.239 5 10a5 5 0 0 1 -10 0z" fill="#ff5023"/><path d="m27 52c0-2.761 5-10 5-10s5 7.239 5 10a5 5 0 0 1 -10 0z" fill="#ff5023"/><path d="m11 52c0-2.761 5-10 5-10s5 7.239 5 10a5 5 0 0 1 -10 0z" fill="#ff5023"/><path d="m61 24v4l-5 4v-8z" fill="#c6c5ca"/><path d="m18 55a2.011 2.011 0 0 1 -1.78 1.99 2.425 2.425 0 0 1 -.44 0 2.011 2.011 0 0 1 -1.78-1.99c0-1.1 2-6 2-6s2 4.9 2 6z" fill="#ffda44"/><path d="m34 55a2.011 2.011 0 0 1 -1.78 1.99 2.425 2.425 0 0 1 -.44 0 2.011 2.011 0 0 1 -1.78-1.99c0-1.1 2-6 2-6s2 4.9 2 6z" fill="#ffda44"/><path d="m47.78 56.99a2.011 2.011 0 0 1 -1.78-1.99c0-1.1 2-6 2-6s2 4.9 2 6a2.011 2.011 0 0 1 -1.78 1.99 2.425 2.425 0 0 1 -.44 0z" fill="#ffda44"/><path d="m3 57h58v4h-58z" fill="#57565c"/><path d="m8 24v8l-5-4v-4z" fill="#c6c5ca"/><path d="m56 16v3h-48v-3l24-2z" fill="#c6c5ca"/><g fill="#ff5023"><path d="m13.52 10h2a1.046 1.046 0 0 1 .292-.75 2.972 2.972 0 0 0 .668-1.918 2.972 2.972 0 0 0 -.668-1.918 1.051 1.051 0 0 1 -.292-.75 1.043 1.043 0 0 1 .291-.747 2.965 2.965 0 0 0 .669-1.917h-2a1.043 1.043 0 0 1 -.291.747 2.965 2.965 0 0 0 -.669 1.917 2.979 2.979 0 0 0 .668 1.919 1.108 1.108 0 0 1 0 1.5 2.972 2.972 0 0 0 -.668 1.917z"/><path d="m21.52 10h2a1.046 1.046 0 0 1 .292-.75 2.972 2.972 0 0 0 .668-1.918 2.972 2.972 0 0 0 -.668-1.918 1.051 1.051 0 0 1 -.292-.75 1.043 1.043 0 0 1 .291-.747 2.965 2.965 0 0 0 .669-1.917h-2a1.043 1.043 0 0 1 -.291.747 2.965 2.965 0 0 0 -.669 1.917 2.979 2.979 0 0 0 .668 1.919 1.108 1.108 0 0 1 0 1.5 2.972 2.972 0 0 0 -.668 1.917z"/><path d="m40.52 10h2a1.046 1.046 0 0 1 .292-.75 2.972 2.972 0 0 0 .668-1.918 2.972 2.972 0 0 0 -.668-1.918 1.051 1.051 0 0 1 -.292-.75 1.043 1.043 0 0 1 .291-.747 2.965 2.965 0 0 0 .669-1.917h-2a1.043 1.043 0 0 1 -.291.747 2.965 2.965 0 0 0 -.669 1.917 2.979 2.979 0 0 0 .668 1.919 1.108 1.108 0 0 1 0 1.5 2.972 2.972 0 0 0 -.668 1.917z"/><path d="m48.52 10h2a1.046 1.046 0 0 1 .292-.75 2.972 2.972 0 0 0 .668-1.918 2.972 2.972 0 0 0 -.668-1.918 1.051 1.051 0 0 1 -.292-.75 1.043 1.043 0 0 1 .291-.747 2.965 2.965 0 0 0 .669-1.917h-2a1.043 1.043 0 0 1 -.291.747 2.965 2.965 0 0 0 -.669 1.917 2.979 2.979 0 0 0 .668 1.919 1.108 1.108 0 0 1 0 1.5 2.972 2.972 0 0 0 -.668 1.917z"/></g></g></svg>