<svg height="512" viewBox="0 0 64 64" width="512" xmlns="http://www.w3.org/2000/svg"><g id="Flat"><g id="Stroke_copy_2" data-name="Stroke copy 2"><g><path d="m3 11h58v50h-58z" fill="#e9f1f2"/><path d="m61 46v15h-58v-50h11v13a22 22 0 0 0 22 22z" fill="#d0d8da"/><path d="m3 3h16v8h-16z" fill="#f9e109"/><path d="m19 3h42v8h-42z" fill="#57b7eb"/><g><rect fill="#f9e109" height="12" rx="2" width="10" x="10" y="16"/><path d="m14.37 28h-2.37a2.006 2.006 0 0 1 -2-2v-8a2.006 2.006 0 0 1 2-2h2v8a21.108 21.108 0 0 0 .37 4z" fill="#fcbc04"/><path d="m11.231 16.154a2 2 0 0 0 -1.231 1.846v8a2 2 0 0 0 2 2h6a2 2 0 0 0 2-2h-7a1 1 0 0 1 -1-1h8v-7h-6a3 3 0 0 1 -2.769-1.846z" fill="#fcbc04"/><path d="m14.37 28h-2.37a2.006 2.006 0 0 1 -2-2v-8a2.02 2.02 0 0 1 1.23-1.85 2.991 2.991 0 0 0 2.77 1.85v6c0 .34.01.67.03 1h-2.03a1 1 0 0 0 1 1h1.09a18.869 18.869 0 0 0 .28 2z" fill="#e59730"/><path d="m14.37 28h-2.37a2.006 2.006 0 0 1 -2-2v-8a2.02 2.02 0 0 1 1.23-1.85 2.991 2.991 0 0 0 2.77 1.85v6c0 .34.01.67.03 1h-2.03a1 1 0 0 0 1 1h1.09a18.869 18.869 0 0 0 .28 2z" fill="#e59730"/><path d="m20 24h-10a2 2 0 0 1 -2-2 2 2 0 0 1 2-2h10a2 2 0 0 1 2 2 2 2 0 0 1 -2 2z" fill="#f89c8d"/><path d="m10 20a2 2 0 0 0 0 4h10a2 2 0 0 0 2-2h-10a2 2 0 0 1 -2-2z" fill="#f8664f"/><path d="m14 20v4h-4a2.006 2.006 0 0 1 -2-2 2.015 2.015 0 0 1 2-2z" fill="#f8664f"/><path d="m14 22v2h-4a2 2 0 0 1 0-4 2.006 2.006 0 0 0 2 2z" fill="#cc5144"/></g><circle cx="31" cy="23" fill="#f8664f" r="4"/><circle cx="31" cy="38" fill="#a1d51c" r="4"/><circle cx="31" cy="53" fill="#7ab92d" r="4"/><path d="m56 9h-32a2 2 0 0 1 -2-2 2 2 0 0 1 2-2h32a2 2 0 0 1 2 2 2 2 0 0 1 -2 2z" fill="#4891d3"/><path d="m3 3h11v8h-11z" fill="#fcbc04"/><circle cx="31" cy="23" fill="#f89c8d" r="2"/><circle cx="31" cy="38" fill="#c4f236" r="2"/><circle cx="31" cy="53" fill="#a1d51c" r="2"/><circle cx="7" cy="7" fill="#cc5144" r="1"/><circle cx="11" cy="7" fill="#4891d3" r="1"/><circle cx="15" cy="7" fill="#57b7eb" r="1"/><path d="m16 20v1a1 1 0 0 1 -2 0v-1z" fill="#cc5144"/><path d="m19 20v1a1 1 0 0 1 -2 0v-1z" fill="#cc5144"/><path d="m13 20v1a1 1 0 0 1 -2 0v-1z" fill="#ad4038"/><path d="m15 38a.994.994 0 0 1 -.514-.143l-5-3a1 1 0 1 1 1.03-1.714l5 3a1 1 0 0 1 -.516 1.857z" fill="#fcbc04"/><path d="m17 38a1 1 0 0 1 -.707-.293l-5-5a1 1 0 0 1 1.414-1.414l5 5a1 1 0 0 1 -.707 1.707z" fill="#fcbc04"/><path d="m15.638 51a1 1 0 0 1 -.965-.738l-.823-3.022-1.975-.248a1 1 0 0 1 .249-1.984l2.639.331a1 1 0 0 1 .84.729l1 3.669a1 1 0 0 1 -.965 1.263z" fill="#f9e109"/><path d="m17 58h-4a1 1 0 0 1 0-2h4a1 1 0 0 1 0 2z" fill="#4891d3"/><path d="m31 24a1 1 0 0 1 -.555-.168l-3-2a1 1 0 0 1 1.11-1.664l2.379 1.586 5.426-4.522a1 1 0 0 1 1.28 1.536l-6 5a1 1 0 0 1 -.64.232z" fill="#4891d3"/><g fill="#57b7eb"><path d="m52 20h-7a1 1 0 0 1 0-2h7a1 1 0 0 1 0 2z"/><path d="m52 24h-9a1 1 0 0 1 0-2h9a1 1 0 0 1 0 2z"/><path d="m52 35h-7a1 1 0 0 1 0-2h7a1 1 0 0 1 0 2z"/><path d="m52 39h-9a1 1 0 0 1 0-2h9a1 1 0 0 1 0 2z"/></g><path d="m52 51h-7a1 1 0 0 1 0-2h7a1 1 0 0 1 0 2z" fill="#4891d3"/><path d="m49 55h-6a1 1 0 0 1 0-2h6a1 1 0 0 1 0 2z" fill="#4891d3"/><path d="m52 43h-9a1 1 0 0 1 0-2h9a1 1 0 0 1 0 2z" fill="#57b7eb"/><path d="m49 28h-6a1 1 0 0 1 0-2h6a1 1 0 0 1 0 2z" fill="#57b7eb"/><path d="m40 8h-15a1 1 0 0 1 0-2h15a1 1 0 0 1 0 2z" fill="#f9e109"/><path d="m56 8h-8a1 1 0 0 1 0-2h8a1 1 0 0 1 0 2z" fill="#f9e109"/><path d="m17 57h-4l-1-8h6z" fill="#57b7eb"/><path d="m17.29 54.67-.29 2.33h-4l-1-8h2.25l.25 2.03a4.551 4.551 0 0 0 2.79 3.64z" fill="#4891d3"/><path d="m9 36h12a0 0 0 0 1 0 0v2a4 4 0 0 1 -4 4h-4a4 4 0 0 1 -4-4v-2a0 0 0 0 1 0 0z" fill="#84d2f4"/><path d="m20.6 39.72a3.969 3.969 0 0 1 -3.6 2.28h-4a4 4 0 0 1 -4-4v-2h8.56a22.562 22.562 0 0 0 3.04 3.72z" fill="#57b7eb"/><path d="m20.46 40a3.98 3.98 0 0 1 -3.46 2h-4a4 4 0 0 1 -4-4v-2h3.08a7.969 7.969 0 0 0 6.92 4z" fill="#4891d3"/></g></g></g></svg>