<svg height="512" viewBox="0 0 64 64" width="512" xmlns="http://www.w3.org/2000/svg"><g id="Flat"><g id="Stroke_copy_2" data-name="Stroke copy 2"><g><g><path d="m53 9h-3v-6h3a3 3 0 0 1 3 3 3 3 0 0 1 -3 3z" fill="#e59730"/><path d="m18 3a4 4 0 0 0 -4 4v.482a14.3 14.3 0 0 1 -1.569 6.378 42.112 42.112 0 0 0 -4.431 18.802v28.338h42v-55a3 3 0 0 1 3-3z" fill="#f9e109"/><path d="m46 61h-38v-28.34a42.079 42.079 0 0 1 4.43-18.8 14.35 14.35 0 0 0 1.57-6.38v-.48a4 4 0 0 1 4-4h9a4 4 0 0 0 -4 4v.48a14.35 14.35 0 0 1 -1.57 6.38 42.079 42.079 0 0 0 -4.43 18.8 20.349 20.349 0 0 0 20.34 20.34h.66a8 8 0 0 1 8 8z" fill="#fcbc04"/><path d="m56 61h-12v-28.338a42.1 42.1 0 0 1 6-21.662 42.1 42.1 0 0 1 6 21.662z" fill="#e59730"/><path d="m56 32.66v28.34h-6v-50a42.247 42.247 0 0 1 4.47 10.42 42.037 42.037 0 0 1 1.53 11.24z" fill="#fcbc04"/><path d="m50 54-6 7h12z" fill="#f9e109"/><path d="m38 20h-21l2-6h21z" fill="#57b7eb"/><path d="m21.36 14a42.464 42.464 0 0 0 -2.41 6h-1.95l2-6z" fill="#4891d3"/><path d="m21.36 14a42.464 42.464 0 0 0 -2.41 6h-1.95l2-6z" fill="#4891d3"/><g fill="#57b7eb"><path d="m33 25h-12a1 1 0 0 1 0-2h12a1 1 0 0 1 0 2z"/><path d="m36 11h-12a1 1 0 0 1 0-2h12a1 1 0 0 1 0 2z"/></g></g><g><path d="m16 47h20a0 0 0 0 1 0 0v2a4 4 0 0 1 -4 4h-12a4 4 0 0 1 -4-4v-2a0 0 0 0 1 0 0z" fill="#f89c8d"/><path d="m15 41h22a0 0 0 0 1 0 0v4a2 2 0 0 1 -2 2h-18a2 2 0 0 1 -2-2v-4a0 0 0 0 1 0 0z" fill="#cc5144"/><path d="m17 43h18a4 4 0 0 0 4-4 4 4 0 0 0 -4-4h-18a4 4 0 0 0 -4 4 4 4 0 0 0 4 4z" fill="#f89c8d"/><path d="m33.6 52.66a3.89 3.89 0 0 1 -1.6.34h-12a4 4 0 0 1 -4-4v-2h6.92l.04.04a20.33 20.33 0 0 0 10.64 5.62z" fill="#f8664f"/><path d="m22.92 47h-5.92a2.006 2.006 0 0 1 -2-2v-4h3.79a16.478 16.478 0 0 0 1.04 2 20.35 20.35 0 0 0 3.09 4z" fill="#ad4038"/><path d="m19.83 43h-2.83a3.989 3.989 0 0 1 -2-.54 4.225 4.225 0 0 1 -.83-.63 4 4 0 0 1 2.83-6.83h.14a19.843 19.843 0 0 0 1.65 6 16.478 16.478 0 0 0 1.04 2z" fill="#f8664f"/><path d="m28 51-4-4h6z" fill="#f8664f"/><path d="m22 51-4-4h6z" fill="#cc5144"/><path d="m35.64 50.64a3.988 3.988 0 0 1 -3.64 2.36h-12a4 4 0 0 1 -4-4v-2h2a4 4 0 0 0 4 4h12a3.931 3.931 0 0 0 1.64-.36z" fill="#f8664f"/><path d="m20 29h12a4 4 0 0 1 4 4v2a0 0 0 0 1 0 0h-20a0 0 0 0 1 0 0v-2a4 4 0 0 1 4-4z" fill="#f89c8d"/><path d="m23 51-4-4h6z" fill="#f9e109"/><path d="m29 51-4-4h6z" fill="#f7f754"/><path d="m28.038 48.038-1.038-1.038h-2l4 4 1.282-2.564a1.99 1.99 0 0 1 -2.244-.398z" fill="#f9e109"/><path d="m24 32a3.991 3.991 0 0 1 -3.859-3h-.141a4 4 0 0 0 -4 4v2h20v-2a3.977 3.977 0 0 0 -.141-1z" fill="#f8664f"/><path d="m16 36.95v-.95h20v1.24a2.282 2.282 0 0 1 -.46 1.37l-1.05 1.41a2.3 2.3 0 0 1 -3.35.34l-.94-.83a2.3 2.3 0 0 0 -3.25.22l-.34.39a2.293 2.293 0 0 1 -3.35.12l-.99-.99a2.286 2.286 0 0 0 -2.8-.35 2.289 2.289 0 0 1 -3.47-1.97z" fill="#f8664f"/><path d="m37 41a3.931 3.931 0 0 0 1.64-.36 3.988 3.988 0 0 1 -3.64 2.36h-18a3.995 3.995 0 0 1 -1.64-7.64 3.931 3.931 0 0 0 -.36 1.64 4 4 0 0 0 4 4z" fill="#f8664f"/><path d="m17.14 35h-1.14v-2a4.011 4.011 0 0 1 1.07-2.72c-.05.79-.07 1.59-.07 2.38a20.138 20.138 0 0 0 .14 2.34z" fill="#cc5144"/><path d="m24.35 48.3-1.35 2.7-4-4h3.92l.04.04a18.37 18.37 0 0 0 1.39 1.26z" fill="#fcbc04"/><g fill="#cc5144"><path d="m16 36.95v-.95h1.27a19.483 19.483 0 0 0 .83 3.24 2.279 2.279 0 0 1 -2.1-2.29z"/><path d="m17 43a3.995 3.995 0 0 1 -1.64-7.64 3.931 3.931 0 0 0 -.36 1.64 4 4 0 0 0 3.79 3.99 17.383 17.383 0 0 0 1.04 2.01z"/><path d="m33.61 52.66a3.972 3.972 0 0 1 -1.61.34h-12a4 4 0 0 1 -4-4v-2h2a4 4 0 0 0 4 4h6.54a20.368 20.368 0 0 0 5.07 1.66z"/><path d="m33.61 52.66a3.972 3.972 0 0 1 -1.61.34h-12a4 4 0 0 1 -4-4v-2h2a4 4 0 0 0 4 4h6.54a20.368 20.368 0 0 0 5.07 1.66z"/><path d="m18.1 39.24a2.279 2.279 0 0 1 -2.1-2.29v-.95h1.27a19.483 19.483 0 0 0 .83 3.24z"/><path d="m19.83 43h-2.83a3.995 3.995 0 0 1 -1.64-7.64 3.931 3.931 0 0 0 -.36 1.64 4 4 0 0 0 3.79 3.99 17.383 17.383 0 0 0 1.04 2.01z"/></g><path d="m19.469 37.92a2.29 2.29 0 0 1 2.8.346l.99.991a2.292 2.292 0 0 0 3.354-.121l.335-.387a2.291 2.291 0 0 1 3.248-.22l.945.832a2.291 2.291 0 0 0 3.347-.344l1.055-1.406a2.3 2.3 0 0 0 .457-1.375v-1.236h-20v.955a2.291 2.291 0 0 0 3.469 1.965z" fill="#a1d51c"/><path d="m36 35.24v1a2.282 2.282 0 0 1 -.46 1.37l-1.05 1.41a2.3 2.3 0 0 1 -3.35.34l-.94-.83a2.3 2.3 0 0 0 -3.25.22l-.34.39a2.293 2.293 0 0 1 -3.35.12l-.99-.99a2.286 2.286 0 0 0 -2.8-.35 2.289 2.289 0 0 1 -3.47-1.97v-.95h3.26a3.1 3.1 0 0 0 2.03 1.69 2.246 2.246 0 0 1 .98.58l.99.99a2.293 2.293 0 0 0 3.35-.12l.34-.39a2.287 2.287 0 0 1 3.24-.22l.95.83a2.3 2.3 0 0 0 3.35-.34l1.05-1.41a2.282 2.282 0 0 0 .46-1.37z" fill="#7ab92d"/></g></g></g></g></svg>