<?xml version="1.0" encoding="iso-8859-1"?>
<!-- Generator: Adobe Illustrator 19.0.0, SVG Export Plug-In . SVG Version: 6.00 Build 0)  -->
<svg version="1.1" id="Capa_1" xmlns="http://www.w3.org/2000/svg" xmlns:xlink="http://www.w3.org/1999/xlink" x="0px" y="0px"
	 viewBox="0 0 512 512" style="enable-background:new 0 0 512 512;" xml:space="preserve">
<g>
	<path style="fill:#E6E6E6;" d="M221.918,110.933h68.156c18.876-0.009,34.185,15.3,34.193,34.176v0.009v102.349H187.733V145.118
		C187.733,126.242,203.042,110.933,221.918,110.933z"/>
	<path style="fill:#E6E6E6;" d="M324.267,256H187.733c-4.71,0-8.533-3.823-8.533-8.533V145.118
		c0.026-23.578,19.14-42.692,42.718-42.718h68.164c23.578,0.026,42.692,19.14,42.718,42.718v102.349
		C332.8,252.177,328.977,256,324.267,256z M196.267,238.933h119.467v-93.815c-0.017-14.157-11.494-25.634-25.651-25.651h-68.164
		c-14.157,0.017-25.634,11.494-25.651,25.651V238.933z"/>
</g>
<g>
	<path style="fill:#06AAE9;" d="M247.467,110.933h17.067V128h-17.067V110.933z"/>
	<path style="fill:#06AAE9;" d="M247.467,145.067h17.067v68.267h-17.067V145.067z"/>
</g>
<g>
	<path style="fill:#F0D0B4;" d="M249.728,8.533h12.544c19.157,0,34.688,15.531,34.688,34.688v33.024
		c0,19.157-15.531,34.688-34.688,34.688h-12.544c-19.157,0-34.688-15.531-34.688-34.688V43.221
		C215.04,24.064,230.571,8.533,249.728,8.533z"/>
	<path style="fill:#F0D0B4;" d="M262.272,119.467h-12.544c-23.859-0.026-43.196-19.362-43.221-43.221V43.221
		C206.532,19.362,225.869,0.026,249.728,0h12.544c23.859,0.026,43.196,19.362,43.221,43.221v33.024
		C305.468,100.105,286.131,119.441,262.272,119.467L262.272,119.467z M249.728,17.067c-14.438,0.017-26.138,11.716-26.155,26.155
		v33.024c0.017,14.438,11.716,26.138,26.155,26.155h12.544c14.438-0.017,26.138-11.716,26.155-26.155V43.221
		c-0.017-14.438-11.716-26.138-26.155-26.155L249.728,17.067z"/>
</g>
<g>
	<path style="fill:#E6E6E6;" d="M42.718,366.933h68.156c18.876-0.009,34.185,15.3,34.193,34.176v0.009v102.349H8.533V401.118
		C8.533,382.242,23.842,366.933,42.718,366.933z"/>
	<path style="fill:#E6E6E6;" d="M145.067,512H8.533C3.823,512,0,508.177,0,503.467V401.118c0.026-23.578,19.14-42.692,42.718-42.718
		h68.164c23.578,0.026,42.692,19.14,42.718,42.718v102.349C153.6,508.177,149.777,512,145.067,512z M17.067,494.933h119.467v-93.815
		c-0.017-14.157-11.494-25.634-25.651-25.651H42.718c-14.157,0.017-25.634,11.494-25.651,25.651L17.067,494.933z"/>
	<path style="fill:#E6E6E6;" d="M401.118,366.933h68.156c18.876-0.009,34.185,15.3,34.193,34.176v0.009v102.349H366.933V401.118
		C366.933,382.242,382.242,366.933,401.118,366.933z"/>
	<path style="fill:#E6E6E6;" d="M503.467,512H366.933c-4.71,0-8.533-3.823-8.533-8.533V401.118
		c0.026-23.578,19.14-42.692,42.718-42.718h68.164c23.578,0.026,42.692,19.14,42.718,42.718v102.349
		C512,508.177,508.177,512,503.467,512z M375.467,494.933h119.467v-93.815c-0.017-14.157-11.494-25.634-25.651-25.651h-68.164
		c-14.157,0.017-25.634,11.494-25.651,25.651V494.933z"/>
</g>
<g>
	<path style="fill:#F29200;" d="M256,452.267c-31.019,0.094-61.611-7.245-89.216-21.402c-4.198-2.142-5.862-7.287-3.721-11.486
		c2.142-4.198,7.287-5.862,11.486-3.721c51.174,26.052,111.727,26.052,162.901,0c4.198-2.142,9.344-0.478,11.486,3.721
		c2.142,4.198,0.478,9.344-3.721,11.486C317.611,445.022,287.019,452.361,256,452.267L256,452.267z"/>
	<path style="fill:#F29200;" d="M442.957,247.467c-4.412,0-8.09-3.371-8.491-7.765c-6.426-67.541-50.202-125.764-113.306-150.682
		c-4.395-1.715-6.562-6.665-4.847-11.059s6.665-6.562,11.059-4.847c69.111,27.307,117.052,91.076,124.092,165.052
		c0.444,4.693-3.004,8.858-7.697,9.301c-0.009,0-0.026,0-0.034,0C443.469,247.467,443.213,247.467,442.957,247.467z"/>
	<path style="fill:#F29200;" d="M69.043,247.467c-0.256,0-0.512,0-0.777,0c-4.693-0.427-8.158-4.574-7.731-9.267
		c7.023-73.984,54.972-137.771,124.092-165.086c4.395-1.715,9.344,0.452,11.059,4.847c1.715,4.395-0.452,9.344-4.847,11.059
		c-63.104,24.917-106.88,83.14-113.306,150.682C77.133,244.096,73.455,247.467,69.043,247.467z"/>
</g>
<g>
	<path style="fill:#06AAE9;" d="M426.667,366.933h17.067V384h-17.067V366.933z"/>
	<path style="fill:#06AAE9;" d="M426.667,401.067h17.067v68.267h-17.067V401.067z"/>
	<path style="fill:#06AAE9;" d="M68.267,366.933h17.067V384H68.267V366.933z"/>
	<path style="fill:#06AAE9;" d="M68.267,401.067h17.067v68.267H68.267V401.067z"/>
</g>
<g>
	<path style="fill:#CF9E76;" d="M70.528,264.533h12.544c19.157,0,34.688,15.531,34.688,34.688v33.024
		c0,19.157-15.531,34.688-34.688,34.688H70.528c-19.157,0-34.688-15.531-34.688-34.688v-33.024
		C35.84,280.064,51.371,264.533,70.528,264.533L70.528,264.533z"/>
	<path style="fill:#CF9E76;" d="M83.072,375.467H70.528c-23.859-0.026-43.196-19.362-43.221-43.221v-33.024
		c0.026-23.859,19.362-43.196,43.221-43.221h12.544c23.859,0.026,43.196,19.362,43.221,43.221v33.024
		C126.268,356.105,106.931,375.441,83.072,375.467z M70.528,273.067c-14.438,0.017-26.138,11.716-26.155,26.155v33.024
		c0.017,14.438,11.716,26.138,26.155,26.155h12.544c14.438-0.017,26.138-11.716,26.155-26.155v-33.024
		c-0.017-14.438-11.716-26.138-26.155-26.155H70.528z"/>
</g>
<g>
	<path style="fill:#ECC19C;" d="M428.928,264.533h12.544c19.157,0,34.688,15.531,34.688,34.688v33.024
		c0,19.157-15.531,34.688-34.688,34.688h-12.544c-19.157,0-34.688-15.531-34.688-34.688v-33.024
		C394.24,280.064,409.771,264.533,428.928,264.533L428.928,264.533z"/>
	<path style="fill:#ECC19C;" d="M441.472,375.467h-12.544c-23.859-0.026-43.196-19.362-43.221-43.221v-33.024
		c0.026-23.859,19.362-43.196,43.221-43.221h12.544c23.859,0.026,43.196,19.362,43.221,43.221v33.024
		C484.668,356.105,465.331,375.441,441.472,375.467z M428.928,273.067c-14.438,0.017-26.138,11.716-26.155,26.155v33.024
		c0.017,14.438,11.716,26.138,26.155,26.155h12.544c14.438-0.017,26.138-11.716,26.155-26.155v-33.024
		c-0.017-14.438-11.716-26.138-26.155-26.155H428.928z"/>
</g>
<g>
</g>
<g>
</g>
<g>
</g>
<g>
</g>
<g>
</g>
<g>
</g>
<g>
</g>
<g>
</g>
<g>
</g>
<g>
</g>
<g>
</g>
<g>
</g>
<g>
</g>
<g>
</g>
<g>
</g>
</svg>
