<svg id="Layer_1" enable-background="new 0 0 512 512" height="512" viewBox="0 0 512 512" width="512" xmlns="http://www.w3.org/2000/svg"><g clip-rule="evenodd" fill-rule="evenodd"><path d="m256 512h124.577 43.987c27.32 0 42.936-6.979 42.936-32.356 0-60.361-24.256-127.584-86.923-161.108-13.689-7.33-29.218-13.053-46.76-16.762h-155.663c-17.513 3.709-33.041 9.432-46.76 16.762-62.638 33.524-86.894 100.747-86.894 161.108 0 25.377 15.587 32.356 42.936 32.356h43.958z" fill="#00d3a1"/><path d="m255.942 347.855c40.017 0 73.292-19.799 77.875-46.081l-18.827-25.814c-6.392-30.516-106.334-31.159-119.381 1.898l-17.455 23.916c4.991 26.019 37.77 46.081 77.788 46.081z" fill="#f2c1a9"/><path d="m367.354 199.246c14.507.175 30.998-14.776 30.998-29.436v-12.265c0-6.366-5.225-11.593-11.617-11.593h-17.542l-23.322 23.8z" fill="#eba07b"/><path d="m163.005 169.752-23.643-23.8h-17.28c-6.392 0-11.617 5.227-11.617 11.593v11.476c0 14.659 16.024 29.611 30.531 29.436z" fill="#eba07b"/><path d="m282.737 294.036c11.384-4.234 22.271-10.484 32.253-18.076l.029.029c26.299-19.974 46.381-49.322 52.335-76.743 1.197-5.49 1.839-10.922 1.839-16.149v-37.145l-37.974-37.087c-45.797-44.738-128.663-60.039-191.856 37.087v37.145c0 4.994.584 10.133 1.635 15.36 5.867 28.501 26.941 59.251 54.612 79.4 9.311 6.775 19.352 12.352 29.831 16.236 20.81 7.74 36.484 7.71 57.296-.057z" fill="#ffe4c9"/><path d="m315.019 275.989c26.299-19.974 46.381-49.322 52.335-76.743 1.197-5.49 1.839-10.922 1.839-16.149v-37.145h-37.069v33.874c0 5.256-.642 10.659-1.839 16.149-5.954 27.421-26.036 56.798-52.335 76.743l-.029-.029c-9.982 7.593-20.87 13.842-32.253 18.105-5.779 2.132-11.179 3.709-16.375 4.672 18.943 6.337 33.946 5.84 53.444-1.431 11.354-4.234 22.271-10.454 32.282-18.046z" fill="#f2c1a9"/><path d="m139.363 145.952c63.193-97.126 127.846 0 191.856 0h37.974v-24.033c-1.197-78.729-65.82-121.861-121.687-121.919h-.175c-27.145.029-52.189 10.221-66.871 31.451-46.848 16.704-41.097 60.886-41.097 80.539z" fill="#af4935"/><path d="m332.124 145.952h37.069v-24.033c-1.197-78.729-65.82-121.861-121.687-121.919h-.175c-6.159.029-12.201.555-18.068 1.606 47.402 7.943 95.33 45.146 102.072 107.376.438 4.176.73 8.498.788 12.937v24.033z" fill="#682316"/><path d="m445.112 510.014c14.448-3.533 22.388-12.265 22.388-30.37 0-60.361-24.256-127.584-86.923-161.108v41.175c46.205 36.065 64.565 94.702 64.565 148.025 0 .76 0 1.548-.03 2.278z" fill="#00a87c"/><path d="m380.577 381.846v-63.31c-13.689-7.33-29.218-13.053-46.76-16.762v80.072h-155.663v-80.072c-17.513 3.709-33.041 9.432-46.76 16.762v63.31 130.154h124.606 124.577z" fill="#efebe9"/><path d="m178.154 381.846v-80.072c-17.513 3.709-33.041 9.432-46.76 16.762v63.31z" fill="#e2cfcc"/><path d="m333.817 381.846h46.76v-63.31c-13.689-7.33-29.218-13.053-46.76-16.762z" fill="#e2cfcc"/><path d="m333.817 334.919v-33.144c-1.868 10.746-8.552 20.412-18.505 28.092 6.45 1.401 12.609 3.095 18.505 5.052z" fill="#00a87c"/><path d="m360.728 346.599c7.122 3.942 13.748 8.323 19.848 13.112v-41.175c-13.689-7.33-29.218-13.053-46.76-16.762v33.144c9.691 3.213 18.652 7.126 26.912 11.681z" fill="#ab8173"/><path d="m325.089 289.801-10.099-13.841c-9.982 7.593-20.87 13.842-32.253 18.076-20.811 7.768-36.486 7.797-57.297.058-10.479-3.884-20.52-9.461-29.831-16.236l-11.675 16.032c3.182 2.745 6.451 5.373 9.866 7.855 9.311 6.775 19.352 12.352 29.831 16.236 19.148 7.125 31.436 10.162 49.504 4.556 2.072-.642 5.312-.555 7.239-1.402 8.961-1.256 25.657 6.337 34.939 8.731 9.953-7.68 16.637-17.346 18.505-28.092z" fill="#eba07b"/></g><path d="m337.115 435.714h-27.407c-4.297 0-7.779-3.486-7.779-7.787s3.483-7.787 7.779-7.787h27.407c4.297 0 7.779 3.486 7.779 7.787s-3.483 7.787-7.779 7.787z" fill="#916859"/><path d="m337.115 473.151h-27.407c-4.297 0-7.779-3.486-7.779-7.787s3.483-7.787 7.779-7.787h27.407c4.297 0 7.779 3.486 7.779 7.787s-3.483 7.787-7.779 7.787z" fill="#916859"/><path d="m210.524 191.264c-4.297 0-7.779-3.486-7.779-7.787v-6.863c0-4.301 3.483-7.787 7.779-7.787 4.297 0 7.779 3.486 7.779 7.787v6.863c.001 4.301-3.482 7.787-7.779 7.787z" fill="#682316"/><path d="m300.804 191.264c-4.297 0-7.779-3.486-7.779-7.787v-6.863c0-4.301 3.483-7.787 7.779-7.787 4.297 0 7.779 3.486 7.779 7.787v6.863c.001 4.301-3.482 7.787-7.779 7.787z" fill="#682316"/><path d="m224.272 494.703h-29.963c-4.297 0-7.779-3.486-7.779-7.787s3.483-7.787 7.779-7.787h29.963c9.153 0 9.418-9.549 9.418-10.637 0-1.704-.454-10.203-9.418-10.203l-13.63-.035c-4.297 0-7.05-3.452-7.05-7.753s2.59-7.787 6.886-7.787h13.794c16.398 0 24.977 12.968 24.977 25.778 0 12.706-8.754 26.211-24.977 26.211z" fill="#deb476"/><path clip-rule="evenodd" d="m200.483 486.915c6.451-10.892 10.362-23.595 10.887-36.415.058-.964.058-1.927.058-2.862.146-4.994-2.248-8.498-7.56-8.498h-124.313c-3.649 0-6.597 2.949-6.597 6.57v1.927c0 26.282 14.623 52.622 36.165 64.361h66.112c10.246-5.576 18.944-14.453 25.248-25.083z" fill="#ffd9a1" fill-rule="evenodd"/><path clip-rule="evenodd" d="m185.51 450.5c-.496 12.82-4.437 25.523-10.887 36.415-6.305 10.63-14.974 19.507-25.248 25.085h25.861c10.245-5.578 18.943-14.455 25.248-25.085 6.451-10.892 10.362-23.595 10.887-36.415.058-.964.058-1.927.058-2.862.146-4.994-2.248-8.498-7.56-8.498h-25.861c5.312 0 7.706 3.504 7.589 8.498-.029.935-.029 1.899-.087 2.862z" fill="#deb476" fill-rule="evenodd"/></svg>